# xmcd CD database file
#
# Track frame offsets:
#	150
#	9578
#	22414
#	35136
#	52444
#	67293
#	87118
#	108155
#	124009
#	141093
#	160457
#	175589
#	193274
#	214874
#	226315
#	247618
#
# Disc length: 3526 seconds
#
# Revision: 0
# Processed by: cddbd v1.5.2PL0 Copyright (c) Steve Scherf et al.
# Submitted via: CDex 1.70beta2
#
DISCID=e90dc410
DTITLE=Gladys Knight and The Pips - Love Finds Its Own Way - The Best Of
DYEAR=2007
DGENRE=Blues
TTITLE0=Every Beat Of My Heart
TTITLE1=Letter Full Of Tears
TTITLE2=I Heard It Through The Grapevine
TTITLE3=Friendship Train
TTITLE4=If I Were Your Woman
TTITLE5=Neither One Of Us (Wants To Be The First To Say Goodbye)
TTITLE6=Midnight Train To Georgia
TTITLE7=I've Got To Use My Imagination
TTITLE8=Best Thing That Ever Happened To Me
TTITLE9=On And On
TTITLE10=I Feel A Song (In My Heart)
TTITLE11=Love Finds Its Own Way
TTITLE12=The Way We Were/Try To Remember
TTITLE13=Part Time Love
TTITLE14=Save The Overtime (For Me)
TTITLE15=Hero (a/k/a Wind Beneath My Wings)
EXTD=YEAR: 2007
EXTT0=
EXTT1=
EXTT2=
EXTT3=
EXTT4=
EXTT5=
EXTT6=
EXTT7=
EXTT8=
EXTT9=
EXTT10=
EXTT11=
EXTT12=
EXTT13=
EXTT14=
EXTT15=
PLAYORDER=
